name Run_300 01_newCOP3_v24.mot
datacolumns 19
datarows 87
range 2.71 2.796
DataType=double
version=3
OpenSimVersion=4.3-2021-08-27-4bc7ad9
endheader
time	R_ground_force_vx	R_ground_force_vy	R_ground_force_vz	R_ground_force_px	R_ground_force_py	R_ground_force_pz	L_ground_force_vx	L_ground_force_vy	L_ground_force_vz	L_ground_force_px	L_ground_force_py	L_ground_force_pz	R_ground_torque_x	R_ground_torque_y	R_ground_torque_z	L_ground_torque_x	L_ground_torque_y	L_ground_torque_z
2.71	0	0	0	0	0	0	0	0	0	0	0	0	0	0	0	0	0	0
2.711	0	0	0	0	0	0	0	0	0	0	0	0	0	0	0	0	0	0
2.712	0	0	0	0	0	0	0	0	0	0	0	0	0	0	0	0	0	0
2.713	0	0	0	0	0	0	0	0	0	0	0	0	0	0	0	0	0	0
2.714	0	0	0	0	0	0	0	0	0	0	0	0	0	0	0	0	0	0
2.715	0	0	0	0	0	0	0	0	0	0	0	0	0	0	0	0	0	0
2.716	0	0	0	0	0	0	0	0	0	0	0	0	0	0	0	0	0	0
2.717	0	0	0	0	0	0	0	0	0	0	0	0	0	0	0	0	0	0
2.718	0	0	0	0	0	0	0	0	0	0	0	0	0	0	0	0	0	0
2.719	0	0	0	0	0	0	0	0	0	0	0	0	0	0	0	0	0	0
2.72	0	0	0	0	0	0	0	0	0	0	0	0	0	0	0	0	0	0
2.721	0	0	0	0	0	0	0	0	0	0	0	0	0	0	0	0	0	0
2.722	0	0	0	0	0	0	0	0	0	0	0	0	0	0	0	0	0	0
2.723	0	0	0	0	0	0	0	0	0	0	0	0	0	0	0	0	0	0
2.724	0	0	0	0	0	0	0	0	0	0	0	0	0	0	0	0	0	0
2.725	0	0	0	0	0	0	0	0	0	0	0	0	0	0	0	0	0	0
2.726	0	0	0	0	0	0	0	0	0	0	0	0	0	0	0	0	0	0
2.727	0	0	0	0	0	0	0	0	0	0	0	0	0	0	0	0	0	0
2.728	0	0	0	0	0	0	0	0	0	0	0	0	0	0	0	0	0	0
2.729	0	0	0	0	0	0	0	0	0	0	0	0	0	0	0	0	0	0
2.73	0	0	0	0	0	0	0	0	0	0	0	0	0	0	0	0	0	0
2.731	0	0	0	0	0	0	0	0	0	0	0	0	0	0	0	0	0	0
2.732	0	0	0	0	0	0	0	0	0	0	0	0	0	0	0	0	0	0
2.733	0	0	0	0	0	0	0	0	0	0	0	0	0	0	0	0	0	0
2.734	0	0	0	0	0	0	0	0	0	0	0	0	0	0	0	0	0	0
2.735	0	0	0	0	0	0	0	0	0	0	0	0	0	0	0	0	0	0
2.736	0	0	0	0	0	0	0	0	0	0	0	0	0	0	0	0	0	0
2.737	0	0	0	0	0	0	0	0	0	0	0	0	0	0	0	0	0	0
2.738	0	0	0	0	0	0	0	0	0	0	0	0	0	0	0	0	0	0
2.739	0	0	0	0	0	0	0	0	0	0	0	0	0	0	0	0	0	0
2.74	0	0	0	0	0	0	0	0	0	0	0	0	0	0	0	0	0	0
2.741	0	0	0	0	0	0	0	0	0	0	0	0	0	0	0	0	0	0
2.742	0	0	0	0	0	0	0	0	0	0	0	0	0	0	0	0	0	0
2.743	0	0	0	0	0	0	0	0	0	0	0	0	0	0	0	0	0	0
2.744	0	0	0	0	0	0	0	0	0	0	0	0	0	0	0	0	0	0
2.745	0	0	0	0	0	0	0	0	0	0	0	0	0	0	0	0	0	0
2.746	0	0	0	0	0	0	0	0	0	0	0	0	0	0	0	0	0	0
2.747	0	0	0	0	0	0	0	0	0	0	0	0	0	0	0	0	0	0
2.748	0	0	0	0	0	0	0	0	0	0	0	0	0	0	0	0	0	0
2.749	0	0	0	0	0	0	0	0	0	0	0	0	0	0	0	0	0	0
2.75	0	0	0	0	0	0	0	0	0	0	0	0	0	0	0	0	0	0
2.751	0	0	0	0	0	0	0	0	0	0	0	0	0	0	0	0	0	0
2.752	0	0	0	0	0	0	0	0	0	0	0	0	0	0	0	0	0	0
2.753	0	0	0	0	0	0	0	0	0	0	0	0	0	0	0	0	0	0
2.754	0	0	0	0	0	0	0	0	0	0	0	0	0	0	0	0	0	0
2.755	0	0	0	0	0	0	0	0	0	0	0	0	0	0	0	0	0	0
2.756	0	0	0	0	0	0	0	0	0	0	0	0	0	0	0	0	0	0
2.757	0	0	0	0	0	0	0	0	0	0	0	0	0	0	0	0	0	0
2.758	0	0	0	0	0	0	0	0	0	0	0	0	0	0	0	0	0	0
2.759	0	0	0	0	0	0	0	0	0	0	0	0	0	0	0	0	0	0
2.76	0	0	0	0	0	0	0	0	0	0	0	0	0	0	0	0	0	0
2.761	0	0	0	0	0	0	0	0	0	0	0	0	0	0	0	0	0	0
2.762	0	0	0	0	0	0	0	0	0	0	0	0	0	0	0	0	0	0
2.763	0	0	0	0	0	0	0	0	0	0	0	0	0	0	0	0	0	0
2.764	0	0	0	0	0	0	0	0	0	0	0	0	0	0	0	0	0	0
2.765	0	0	0	0	0	0	0	0	0	0	0	0	0	0	0	0	0	0
2.766	0	0	0	0	0	0	0	0	0	0	0	0	0	0	0	0	0	0
2.767	0	0	0	0	0	0	0	0	0	0	0	0	0	0	0	0	0	0
2.768	0	0	0	0	0	0	0	0	0	0	0	0	0	0	0	0	0	0
2.769	0	0	0	0	0	0	0	0	0	0	0	0	0	0	0	0	0	0
2.77	0	0	0	0	0	0	-5.805243	10.382879	-0.01024	0.81012	0	-0.37882	0	0	0	-0	4.280375	-0
2.771	0	0	0	0	0	0	-6.67036	12.042504	-0.00493	0.816726	0	-0.388976	0	0	0	-0	4.280112	-0
2.772	0	0	0	0	0	0	-7.671192	13.985325	0.022304	0.822515	0	-0.397239	0	0	0	-0	4.268932	-0
2.773	0	0	0	0	0	0	-8.821377999999999	16.249918	0.0756	0.827521	0	-0.403909	0	0	0	-0	4.246543	-0
2.774	0	0	0	0	0	0	-10.135138	18.878231	0.15943	0.831808	0	-0.409253	0	0	0	-0	4.212693	-0
2.775	0	0	0	0	0	0	-11.627125	21.915529	0.278589	0.835459	0	-0.413503	0	0	0	-0	4.167165	-0
2.776	0	0	0	0	0	0	-13.312213	25.410255	0.438181	0.838566	0	-0.416855	0	0	0	-0	4.109786	-0
2.777	0	0	0	0	0	0	-15.205252	29.413794	0.643597	0.84122	0	-0.419473	0	0	0	-0	4.040427	-0
2.778	0	0	0	0	0	0	-17.320749	33.980133	0.900484	0.843504	0	-0.421489	0	0	0	-0	3.959004	-0
2.779	0	0	0	0	0	0	-19.672523	39.165421	1.214698	0.845494	0	-0.423012	0	0	0	-0	3.86548	-0
2.78	0	0	0	0	0	0	-22.2733	45.027363	1.592258	0.847253	0	-0.424129	0	0	0	-0	3.75987	-0
2.781	0	0	0	0	0	0	-25.134277	51.62455	2.039279	0.848836	0	-0.424908	0	0	0	-0	3.642236	-0
2.782	0	0	0	0	0	0	-28.26466	59.015606	2.561898	0.850285	0	-0.425404	0	0	0	-0	3.512694	-0
2.783	0	0	0	0	0	0	-31.671179	67.25825500000001	3.166184	0.851634	0	-0.425662	0	0	0	-0	3.371413	-0
2.784	0	0	0	0	0	0	-35.357613	76.408287	3.858042	0.852909	0	-0.425716	0	0	0	-0	3.218614	-0
2.785	0	0	0	0	0	0	-39.32431	86.51840199999999	4.643099	0.8541260000000001	0	-0.425595	0	0	0	-0	3.054573	-0
2.786	0	0	0	0	0	0	-43.567753	97.637047	5.526582	0.855298	0	-0.425322	0	0	0	-0	2.879621	-0
2.787	0	0	0	0	0	0	-48.080143	109.807213	6.51319	0.85643	0	-0.424916	0	0	0	-0	2.69414	-0
2.788	0	0	0	0	0	0	-52.849091	123.065247	7.606951	0.857525	0	-0.424393	0	0	0	-0	2.498567	-0
2.789	0	0	0	0	0	0	-57.857334	137.439743	8.811083	0.858581	0	-0.423766	0	0	0	-0	2.29339	-0
2.79	0	0	0	0	0	0	-63.0826	152.950516	10.127846	0.859594	0	-0.423048	0	0	0	-0	2.079149	-0
2.791	0	0	0	0	0	0	-68.497551	169.607819	11.558396	0.860557	0	-0.422247	0	0	0	-0	1.856433	-0
2.792	0	0	0	0	0	0	-74.069878	187.411636	13.102647	0.861461	0	-0.421375	0	0	0	-0	1.625877	-0
2.793	0	0	0	0	0	0	-79.762505	206.351364	14.759136	0.862297	0	-0.420439	0	0	0	-0	1.38816	-0
2.794	0	0	0	0	0	0	-85.533974	226.405701	16.524912	0.863055	0	-0.419448	0	0	0	-0	1.144006	-0
2.795	0	0	0	0	0	0	-91.338966	247.542877	18.395424	0.863721	0	-0.418409	0	0	0	-0	0.894174	-0
2.796	0	0	0	0	0	0	-97.128967	269.72113	20.364447	0.8642840000000001	0	-0.417329	0	0	0	-0	0.639459	-0
